<svg xmlns="http://www.w3.org/2000/svg" viewBox="0 0 29 29">
  <defs>
    <style>
      .cls-1 {
        fill: #6c78e5;
      }

      .cls-2 {
        fill: #fff;
      }
    </style>
  </defs>
  <g id="Group_198" data-name="Group 198" transform="translate(-133 -381.6)">
    <circle id="Ellipse_32" data-name="Ellipse 32" class="cls-1" cx="14.5" cy="14.5" r="14.5" transform="translate(133 381.6)"/>
    <path id="gift_1_" data-name="gift (1)" class="cls-2" d="M16.753,4.232H12.268A2.057,2.057,0,0,0,9.128,1.6L8.3,2.431,7.466,1.6a2.057,2.057,0,0,0-3.14,2.633H0V8.347H1.47v8.817H15.578V8.347h1.176ZM9.544,2.015a1.47,1.47,0,0,1,2.078,2.078l-.139.139H7.327L8.713,2.847h0ZM4.972,4.094A1.47,1.47,0,0,1,7.05,2.015l.831.831L6.842,3.886a1.81,1.81,0,0,0-.171.2c-.016.021-.031.045-.047.067s-.036.049-.053.076H5.111ZM.588,7.759V4.82H8.23V7.759H.588Zm7.642.588v3.527H2.057V8.347H8.23ZM2.057,12.462H8.23v4.115H2.057Zm6.76,4.115V12.462H14.99v4.115Zm6.172-4.7H8.817V8.347H14.99Zm1.176-4.115H8.817V4.82h7.348Z" transform="translate(139.121 386.688)"/>
  </g>
</svg>
