<svg xmlns="http://www.w3.org/2000/svg" viewBox="0 0 29 29">
  <defs>
    <style>
      .cls-1 {
        fill: #e7711b;
      }

      .cls-2 {
        fill: #fff;
      }
    </style>
  </defs>
  <g id="Group_199" data-name="Group 199" transform="translate(-133 -553.6)">
    <path id="Path_204" data-name="Path 204" class="cls-1" d="M14.5,0A14.5,14.5,0,1,1,0,14.5,14.5,14.5,0,0,1,14.5,0Z" transform="translate(133 553.6)"/>
    <path id="star" class="cls-2" d="M3.7,18.759a.327.327,0,0,1-.323-.383l1.013-5.9L.1,8.292a.328.328,0,0,1,.182-.559l5.928-.861L8.86,1.5a.327.327,0,0,1,.294-.183h0a.326.326,0,0,1,.294.183L12.1,6.871l5.928.861a.328.328,0,0,1,.182.559l-4.29,4.181,1.013,5.9a.328.328,0,0,1-.475.345l-5.3-2.787-5.3,2.787A.33.33,0,0,1,3.7,18.759ZM1.032,8.286l3.937,3.838a.328.328,0,0,1,.094.29l-.93,5.419L9,15.274a.326.326,0,0,1,.305,0l4.867,2.558-.929-5.419a.328.328,0,0,1,.094-.29l3.937-3.838-5.441-.791a.328.328,0,0,1-.247-.179L9.153,2.386,6.72,7.316a.328.328,0,0,1-.247.179Z" transform="translate(138.05 557.377)"/>
  </g>
</svg>
