<svg xmlns="http://www.w3.org/2000/svg" viewBox="0 0 25.504 25.504">
  <defs>
    <style>
      .cls-1 {
        fill: #fff;
      }
    </style>
  </defs>
  <path id="facebook-square-brands" class="cls-1" d="M25.5,34.733V54.772A2.733,2.733,0,0,1,22.772,57.5H17.916V47.416h3.45l.5-3.848H17.916V41.109c0-1.116.307-1.873,1.907-1.873h2.038V35.8a27.4,27.4,0,0,0-2.972-.154c-2.938,0-4.953,1.793-4.953,5.089v2.841H10.475v3.848h3.467V57.5H2.733A2.733,2.733,0,0,1,0,54.772V34.733A2.733,2.733,0,0,1,2.733,32H22.772A2.733,2.733,0,0,1,25.5,34.733Z" transform="translate(0 -32)"/>
</svg>
