<svg xmlns="http://www.w3.org/2000/svg" xmlns:xlink="http://www.w3.org/1999/xlink" viewBox="0 0 140.443 116.732">
  <defs>
    <style>
      .cls-1, .cls-3 {
        fill: #73d9b7;
      }

      .cls-1, .cls-15, .cls-5 {
        opacity: 0.1;
      }

      .cls-2 {
        fill: #3a3768;
      }

      .cls-4 {
        fill: #e6e8ec;
      }

      .cls-6 {
        fill: #ffd037;
      }

      .cls-7 {
        fill: #a8a8a8;
      }

      .cls-8 {
        opacity: 0.2;
      }

      .cls-9 {
        fill: url(#linear-gradient);
      }

      .cls-10 {
        fill: url(#linear-gradient-2);
      }

      .cls-11 {
        fill: #ffbdc6;
      }

      .cls-12 {
        fill: #474463;
      }

      .cls-13 {
        fill: #f2f1f2;
      }

      .cls-14 {
        fill: #ff748e;
      }

      .cls-16 {
        fill: #fff;
      }

      .cls-17 {
        fill: #3acc6c;
      }
    </style>
    <linearGradient id="linear-gradient" x1="953.182" y1="-Infinity" x2="953.182" y2="-Infinity" gradientUnits="objectBoundingBox">
      <stop offset="0" stop-color="gray" stop-opacity="0.251"/>
      <stop offset="0.54" stop-color="gray" stop-opacity="0.122"/>
      <stop offset="1" stop-color="gray" stop-opacity="0.102"/>
    </linearGradient>
    <linearGradient id="linear-gradient-2" x1="3.271" y1="-0.484" x2="3.271" y2="0.524" xlink:href="#linear-gradient"/>
  </defs>
  <g id="order-icon" transform="translate(-446.718 -371.519)">
    <path id="Path_324" data-name="Path 324" class="cls-1" d="M528.2,386.951c-9.055-.362-17.628-3.26-25.718-6.4-8.21-3.139-16.3-6.761-25.114-8.331-5.675-1.087-12.074-1.207-16.662,1.811-4.347,2.9-5.8,7.969-6.52,12.678-.6,3.5-.966,7.244.6,10.5,1.087,2.294,3.018,4.226,4.347,6.4,4.709,7.607,1.328,17.024-3.622,24.389-2.415,3.5-5.071,6.761-6.882,10.5s-2.656,7.969-1.087,11.712,5.313,6.52,9.418,8.573c8.331,3.984,18.111,5.192,27.649,5.8,21.129,1.449,42.38.845,63.509.241a189.3,189.3,0,0,0,23.424-1.69c4.226-.724,8.693-1.69,11.833-4.347a9.835,9.835,0,0,0,2.294-12.919c-4.467-6.882-16.662-8.573-19.8-15.938-1.69-4.105,0-8.573,2.536-12.315,5.313-8.09,14.247-15.213,14.73-24.389.362-6.4-3.984-12.678-10.625-15.7-7-3.139-16.541-2.777-21.733,2.415C545.462,385.14,536.165,387.192,528.2,386.951Z" transform="translate(0)"/>
    <ellipse id="Ellipse_137" data-name="Ellipse 137" class="cls-1" cx="42.259" cy="5.675" rx="42.259" ry="5.675" transform="translate(471.569 474.366)"/>
    <path id="Path_325" data-name="Path 325" class="cls-2" d="M520.962,404.8h.6a.386.386,0,0,1,.362.362V414.7a.386.386,0,0,1-.362.362h-.6a.386.386,0,0,1-.362-.362v-9.538C520.721,405.041,520.841,404.8,520.962,404.8Z" transform="translate(15.323 6.902)"/>
    <path id="Path_326" data-name="Path 326" class="cls-2" d="M487.062,398.3h0a.32.32,0,0,1,.362.362v2.656a.386.386,0,0,1-.362.362h0a.386.386,0,0,1-.362-.362v-2.656Q486.881,398.3,487.062,398.3Z" transform="translate(8.292 5.554)"/>
    <path id="Path_327" data-name="Path 327" class="cls-2" d="M487.062,403.3h.121a.385.385,0,0,1,.362.362v5.192a.386.386,0,0,1-.362.362h-.121a.386.386,0,0,1-.362-.362v-5.192A.32.32,0,0,1,487.062,403.3Z" transform="translate(8.292 6.591)"/>
    <path id="Path_328" data-name="Path 328" class="cls-2" d="M487.062,409.8h0c.242,0,.483.121.483.362v5.192a.386.386,0,0,1-.362.362h-.121a.386.386,0,0,1-.362-.362v-5.192A.386.386,0,0,1,487.062,409.8Z" transform="translate(8.292 7.939)"/>
    <path id="Path_329" data-name="Path 329" class="cls-2" d="M492.533,389.1H522.96a5.411,5.411,0,0,1,5.433,5.433V467.46a5.411,5.411,0,0,1-5.433,5.433H492.533a5.411,5.411,0,0,1-5.433-5.433V394.533A5.411,5.411,0,0,1,492.533,389.1Z" transform="translate(8.375 3.646)"/>
    <path id="Path_330" data-name="Path 330" class="cls-3" d="M522.041,390.9h-4.709v.6a2.68,2.68,0,0,1-2.656,2.656H499.584a2.68,2.68,0,0,1-2.656-2.656h0v-.6H492.46a3.246,3.246,0,0,0-3.26,3.26h0v72.927a3.246,3.246,0,0,0,3.26,3.26h29.581a3.246,3.246,0,0,0,3.26-3.26V394.16a3.246,3.246,0,0,0-3.26-3.26Z" transform="translate(8.811 4.02)"/>
    <path id="Path_331" data-name="Path 331" class="cls-4" d="M501.383,391.2h4.709a.519.519,0,0,1,.483.483v.121a.519.519,0,0,1-.483.483h-4.709a.519.519,0,0,1-.483-.483v-.121A.519.519,0,0,1,501.383,391.2Z" transform="translate(11.237 4.082)"/>
    <circle id="Ellipse_138" data-name="Ellipse 138" class="cls-4" cx="0.604" cy="0.604" r="0.604" transform="translate(518.778 395.282)"/>
    <path id="Path_332" data-name="Path 332" class="cls-3" d="M534.8,386.1s-11.712-.724-10.384,7.486a1.952,1.952,0,0,0,1.087,2.053s0-.6,1.207-.362a4.526,4.526,0,0,0,1.328.121,2.543,2.543,0,0,0,1.57-.6h0s3.26-1.328,4.588-6.761a7.515,7.515,0,0,0,.966-1.449l-1.932.845a3.339,3.339,0,0,1,.121,2.656s-.121-2.536-.483-2.536a9.575,9.575,0,0,0-1.087.483s1.207,2.536.241,4.347c0,0,.362-3.018-.6-4.105l-1.449.845s1.328,2.536.483,4.709c0,0,.242-3.26-.724-4.467l-1.207.966s1.328,2.536.483,4.226c0,0-.121-3.743-.724-3.984a13.38,13.38,0,0,0-1.328,1.328s.845,1.811.362,2.777c0,0-.362-2.536-.6-2.536a8.912,8.912,0,0,0-1.207,2.777,5.208,5.208,0,0,1,.966-2.9,4.017,4.017,0,0,0-1.69.845s.121-1.207,1.932-1.328a10.914,10.914,0,0,1,1.207-1.328,7.624,7.624,0,0,0-2.9.362,3.224,3.224,0,0,1,3.139-.6l1.207-.966a9.982,9.982,0,0,0-3.381,0s1.087-.966,3.622-.241l1.328-.845a9.2,9.2,0,0,0-3.139-.241s1.207-.724,3.622,0l.966-.483s-1.449-.241-1.932-.362c-.483,0-.483-.121-.483-.121a5.379,5.379,0,0,1,2.777.362C532.87,386.948,534.922,386.224,534.8,386.1Z" transform="translate(16.093 3.021)"/>
    <path id="Path_333" data-name="Path 333" class="cls-3" d="M523.917,383.009s-5.313-.362-4.709,3.381a.951.951,0,0,0,.483.966s0-.241.6-.241h.6a1.716,1.716,0,0,0,.724-.242h0a4.233,4.233,0,0,0,2.053-3.018s.483-.483.362-.724l-.845.362a1.5,1.5,0,0,1,.121,1.207s0-1.207-.242-1.087l-.483.241a2.8,2.8,0,0,1,.121,1.932,3.654,3.654,0,0,0-.241-1.811l-.6.362a2.947,2.947,0,0,1,.242,2.053,3.752,3.752,0,0,0-.362-2.053l-.6.483a2.571,2.571,0,0,1,.242,1.932s0-1.69-.362-1.811l-.6.6s.362.845.121,1.207c0,0-.121-1.087-.241-1.087a5.237,5.237,0,0,0-.6,1.207,1.816,1.816,0,0,1,.483-1.328,1.377,1.377,0,0,0-.724.362.954.954,0,0,1,.845-.6s.362-.6.483-.6a2.815,2.815,0,0,0-1.328.121,1.531,1.531,0,0,1,1.449-.241l.6-.483a5.617,5.617,0,0,0-1.449,0s.483-.483,1.69-.121l.6-.362a3.786,3.786,0,0,0-1.449-.121,1.887,1.887,0,0,1,1.57,0l.483-.242a6.81,6.81,0,0,0-.845-.121c-.242,0-.242-.121-.242-.121a2.087,2.087,0,0,1,1.207.121C522.951,383.492,523.917,383.129,523.917,383.009Z" transform="translate(15.024 2.373)"/>
    <ellipse id="Ellipse_139" data-name="Ellipse 139" class="cls-1" cx="3.743" cy="0.604" rx="3.743" ry="0.604" transform="translate(563.089 478.351)"/>
    <ellipse id="Ellipse_140" data-name="Ellipse 140" class="cls-1" cx="3.743" cy="0.604" rx="3.743" ry="0.604" transform="translate(455.51 483.543)"/>
    <ellipse id="Ellipse_141" data-name="Ellipse 141" class="cls-1" cx="3.743" cy="0.604" rx="3.743" ry="0.604" transform="translate(469.999 487.044)"/>
    <ellipse id="Ellipse_142" data-name="Ellipse 142" class="cls-3" cx="5.554" cy="0.966" rx="5.554" ry="0.966" transform="translate(553.068 484.871)"/>
    <path id="Path_334" data-name="Path 334" class="cls-3" d="M542.2,465.339a1.222,1.222,0,0,0,.483-.845.737.737,0,0,0-.362-.845,1,1,0,0,0-.966.362,1.491,1.491,0,0,1-.966.483,1.437,1.437,0,0,0,.483-1.328c0-.121,0-.242-.121-.242-.242-.241-.483-.121-.724,0a2.8,2.8,0,0,0-.966,2.415,2.6,2.6,0,0,1,0-.966.94.94,0,0,0-.362-.845.9.9,0,0,0-.6-.121,1.3,1.3,0,0,0-.966.241.906.906,0,0,0,0,1.087,2.907,2.907,0,0,0,.966.724,3.2,3.2,0,0,1,.724.6v.121h2.052A4.983,4.983,0,0,0,542.2,465.339Z" transform="translate(18.714 18.928)"/>
    <path id="Path_335" data-name="Path 335" class="cls-3" d="M469.666,454.8s.724.966-.362,2.535c-1.087,1.449-2.053,2.777-1.69,3.743,0,0,1.69-2.777,3.019-2.9C472.081,458.06,471.115,456.49,469.666,454.8Z" transform="translate(4.318 17.272)"/>
    <path id="Path_336" data-name="Path 336" class="cls-5" d="M469.673,454.8a.444.444,0,0,1,.121.362c1.328,1.57,2.053,3.019.724,3.019-1.207,0-2.656,2.173-3.018,2.777v.121s1.69-2.777,3.018-2.9S471.122,456.49,469.673,454.8Z" transform="translate(4.31 17.272)"/>
    <path id="Path_337" data-name="Path 337" class="cls-6" d="M470.441,455.845c0,.362,0,.6-.121.6a1.465,1.465,0,0,1-.121-.6c0-.362,0-.241.121-.241C470.441,455.724,470.441,455.483,470.441,455.845Z" transform="translate(4.87 17.435)"/>
    <path id="Path_338" data-name="Path 338" class="cls-6" d="M471,456.23a5.069,5.069,0,0,0-.6.241,2.252,2.252,0,0,1,.483-.362c.362-.121.241,0,.241,0Z" transform="translate(4.912 17.533)"/>
    <path id="Path_339" data-name="Path 339" class="cls-3" d="M466.189,454.8s-.724.966.362,2.535c1.087,1.449,2.053,2.777,1.69,3.743,0,0-1.69-2.777-3.019-2.9C463.774,458.06,464.74,456.49,466.189,454.8Z" transform="translate(3.689 17.272)"/>
    <path id="Path_340" data-name="Path 340" class="cls-5" d="M466.166,454.8a.443.443,0,0,0-.121.362c-1.328,1.57-2.053,3.019-.724,3.019,1.207,0,2.656,2.173,3.018,2.777v.121s-1.69-2.777-3.018-2.9S464.717,456.49,466.166,454.8Z" transform="translate(3.712 17.272)"/>
    <path id="Path_341" data-name="Path 341" class="cls-6" d="M464.8,455.845c0,.362,0,.6.121.6s.121-.242.121-.6,0-.241-.121-.241C464.8,455.724,464.8,455.483,464.8,455.845Z" transform="translate(3.75 17.435)"/>
    <path id="Path_342" data-name="Path 342" class="cls-6" d="M464.326,456.23a5.07,5.07,0,0,1,.6.241,2.253,2.253,0,0,0-.483-.362c-.362-.121-.241,0-.241,0Z" transform="translate(3.621 17.533)"/>
    <path id="Path_343" data-name="Path 343" class="cls-7" d="M465,459.988a10.181,10.181,0,0,0,2.777-.483c.6-.483,3.26-.966,3.5-.241.121.724,3.26,3.622.845,3.622a23.255,23.255,0,0,1-6.278-.724C465.121,461.8,465,459.988,465,459.988Z" transform="translate(3.792 18.121)"/>
    <path id="Path_344" data-name="Path 344" class="cls-8" d="M472,462.436a23.255,23.255,0,0,1-6.279-.724c-.483-.241-.724-1.328-.724-1.811h0s.121,1.69.724,2.173A18.682,18.682,0,0,0,472,462.8c.724,0,.966-.242.966-.6A1.56,1.56,0,0,1,472,462.436Z" transform="translate(3.792 18.33)"/>
    <path id="Path_345" data-name="Path 345" class="cls-9" d="M479.1,422.7h0Z" transform="translate(6.716 10.615)"/>
    <path id="Path_346" data-name="Path 346" class="cls-10" d="M499.643,401.2a7.493,7.493,0,0,0-1.207-.362,5.737,5.737,0,0,0,1.087-2.294h0v-.121a2.422,2.422,0,0,1-2.656-1.087c-.724-.845-1.087-1.932-1.932-2.777a6.048,6.048,0,0,0-.966-.845c-.241-.121-.483-.362-.724-.362-.483,0-.724.362-1.207.6-.242.121-.6,0-.845,0a32.357,32.357,0,0,0-3.26-.845,2.655,2.655,0,0,0-1.69.241,3.288,3.288,0,0,0-1.207.966,3.9,3.9,0,0,1-2.053.362,11.713,11.713,0,0,1-2.053.121h-1.207a4.917,4.917,0,0,0-2.053,1.449,2.638,2.638,0,0,0-.362.6v.241a.726.726,0,0,0,.121.483,6.506,6.506,0,0,0,.845,1.57,5.67,5.67,0,0,1,.725,1.087,1.313,1.313,0,0,1,.121.6,1.532,1.532,0,0,1-.121.724,11.31,11.31,0,0,1-.483,1.932c-.121.362-.242.6-.362.966v.241c0,1.087,1.087,1.932,1.207,3.018v.242a1.618,1.618,0,0,1-.966,1.57h.121a.118.118,0,0,0-.121.121c.121,0,.242.121.362.121a7.883,7.883,0,0,0-1.57,1.932c-1.932,3.5-14.61,10.5-14.61,10.5a.374.374,0,0,1,.242.121l-.121.121c-1.087.724-3.743,2.9-1.328,5.675a31.391,31.391,0,0,1,3.139-4.226l.121-.121c0,.121.121.241,0,.241l8.452-4.83a43.333,43.333,0,0,1,3.864-2.536,7.755,7.755,0,0,1,1.932-.845h-.121a2.658,2.658,0,0,1,.966-.121c1.449,0,3.139,1.087,3.622,5.554.724,5.8.362,6.882.121,7h.121v.121h0v1.087c-.724,0-1.449.121-2.173.121v-.483a1.116,1.116,0,0,0,1.207-.724c.121-.966-1.207-1.57-2.415-1.69s-8.21.362-8.21.362-1.087,1.449,2.294,1.811c.121,0,.241.121.362.121a28.437,28.437,0,0,1,3.984,2.9l.121.121-.362.362c2.053.483,4.105,8.573,5.192,12.195s3.5,3.5,5.554,3.019c1.932-.483,2.173-6.037,2.173-6.761v-.121l3.381,4.226.241.362a.421.421,0,0,1,.241.121,3.26,3.26,0,0,0,4.588-3.743,81.292,81.292,0,0,0-2.9-8.331c-.724-1.449-1.57-3.743-2.173-5.192.121,0,.121-.121.241-.121v-.242h0a45.953,45.953,0,0,1-.845-7.244v-.241a8.878,8.878,0,0,0,.966-.242v-.121h-.121l.362-3.864s1.207-2.656.241-3.743a3.777,3.777,0,0,1-.6-1.207,4.057,4.057,0,0,1,2.173-4.105,18.658,18.658,0,0,0,4.709-3.984S501.817,401.8,499.643,401.2Zm-6.761,2.656v-1.811h1.932c.362,0,.6-.121.966-.121l.121.121A15.392,15.392,0,0,1,492.882,403.854Zm-9.538,28.374c.241.121.483.362.724.483.121.845.241,1.57.241,1.57A10.707,10.707,0,0,0,483.344,432.228Z" transform="translate(2.835 4.468)"/>
    <path id="Path_347" data-name="Path 347" class="cls-11" d="M485.269,424.5l-.121.845-.121.6-.242,1.087-2.053,1.449a2.084,2.084,0,0,1-.483-.362,40.063,40.063,0,0,0-3.864-2.9,4.289,4.289,0,0,0-1.087-.483Z" transform="translate(6.343 10.988)"/>
    <path id="Path_348" data-name="Path 348" class="cls-5" d="M485.248,424.5l-.121.845a4.952,4.952,0,0,1-1.328-.121l-4.709.121h-.6a4.29,4.29,0,0,0-1.087-.483Z" transform="translate(6.363 10.988)"/>
    <path id="Path_349" data-name="Path 349" class="cls-12" d="M484,425.4s2.415.362,2.536-.6-1.207-1.57-2.415-1.69-8.09.362-8.09.362-1.207,1.57,3.139,1.932Z" transform="translate(6.047 10.694)"/>
    <path id="Path_350" data-name="Path 350" class="cls-5" d="M485.269,424.5l-.121.845-.121.6-.242,1.087-2.053,1.449a2.084,2.084,0,0,1-.483-.362,40.063,40.063,0,0,0-3.864-2.9,4.289,4.289,0,0,0-1.087-.483Z" transform="translate(6.343 10.988)"/>
    <path id="Path_351" data-name="Path 351" class="cls-5" d="M485.248,424.5l-.121.845a4.952,4.952,0,0,1-1.328-.121l-4.709.121h-.6a4.29,4.29,0,0,0-1.087-.483Z" transform="translate(6.363 10.988)"/>
    <path id="Path_352" data-name="Path 352" class="cls-5" d="M484,425.373s2.415.362,2.536-.6-1.207-1.57-2.415-1.57-8.09.362-8.09.362-1.207,1.57,3.139,1.932Z" transform="translate(6.047 10.719)"/>
    <rect id="Rectangle_445" data-name="Rectangle 445" class="cls-12" width="12.436" height="14.73" transform="translate(482.918 402.647)"/>
    <rect id="Rectangle_446" data-name="Rectangle 446" class="cls-5" width="12.436" height="14.73" transform="translate(482.918 402.768)"/>
    <path id="Path_353" data-name="Path 353" class="cls-11" d="M465.4,418.428c-.241,0-.483.242-.724.483a31.59,31.59,0,0,0-3.019,4.105c-2.294-2.777.241-4.83,1.328-5.675l.483-.241Z" transform="translate(2.906 9.453)"/>
    <path id="Path_354" data-name="Path 354" class="cls-11" d="M484.941,401.2s.6,4.226,2.656,5.313c2.053.966-2.656,2.9-2.656,2.9L478.3,407s3.743-1.207,3.018-4.83Z" transform="translate(6.55 6.156)"/>
    <path id="Path_355" data-name="Path 355" class="cls-11" d="M479.269,422.5l-.121.845-.121.6-.241,1.087-2.053,1.449a2.088,2.088,0,0,1-.483-.362,40.082,40.082,0,0,0-3.864-2.9,4.287,4.287,0,0,0-1.087-.483Z" transform="translate(5.098 10.573)"/>
    <path id="Path_356" data-name="Path 356" class="cls-5" d="M479.248,422.5l-.121.845a4.952,4.952,0,0,1-1.328-.121l-4.709.121h-.6a4.288,4.288,0,0,0-1.087-.483Z" transform="translate(5.119 10.573)"/>
    <path id="Path_357" data-name="Path 357" class="cls-12" d="M478.1,423.4s2.415.362,2.536-.6-1.207-1.57-2.415-1.69-8.09.362-8.09.362-1.207,1.57,3.139,1.932Z" transform="translate(4.823 10.28)"/>
    <path id="Path_358" data-name="Path 358" class="cls-5" d="M478.177,423.7l-.242,1.087-2.053,1.449a2.085,2.085,0,0,1-.483-.362l2.777-2.173Z" transform="translate(5.949 10.822)"/>
    <path id="Path_359" data-name="Path 359" class="cls-12" d="M491.6,439.694a.422.422,0,0,1-.242-.121l-.241-.362-3.26-4.105v.121c0,.724-.242,6.158-2.053,6.761-1.932.483-4.347.724-5.433-3.019s-3.018-11.712-5.071-12.195l3.019-2.536a15.2,15.2,0,0,1,2.777,4.588c0-.121-1.449-6.641-.242-7.727h9.9s1.57,4.347,2.536,6.52a60.934,60.934,0,0,1,2.777,8.331A3.146,3.146,0,0,1,491.6,439.694Z" transform="translate(5.928 10.283)"/>
    <path id="Path_360" data-name="Path 360" class="cls-5" d="M490.5,423.718c-1.57.845-8.21.483-10.384.362h-.6l.121-.6,1.57-4.105,8.693-5.071a10.187,10.187,0,0,0-.241,2.294A43.578,43.578,0,0,0,490.5,423.718Z" transform="translate(6.79 8.873)"/>
    <path id="Path_361" data-name="Path 361" class="cls-13" d="M490.508,423.618c-1.57.845-8.21.483-10.384.362h-.6l.483-.121,1.207-4.588L489.9,414.2a10.188,10.188,0,0,0-.242,2.294A45.77,45.77,0,0,0,490.508,423.618Z" transform="translate(6.778 8.852)"/>
    <path id="Path_362" data-name="Path 362" class="cls-5" d="M489.642,416.373c-1.811.362-5.675,1.57-7.124,4.467a7.351,7.351,0,0,1-2.415,3.139h-.6l.483-.121,1.207-4.588,8.693-5.071A5.359,5.359,0,0,0,489.642,416.373Z" transform="translate(6.799 8.852)"/>
    <path id="Path_363" data-name="Path 363" class="cls-5" d="M462.962,417.2l2.053,1.207c-.241,0-.483.241-.724.483-.121-.483-1.207-1.207-1.69-1.449A1.494,1.494,0,0,0,462.962,417.2Z" transform="translate(3.294 9.474)"/>
    <path id="Path_364" data-name="Path 364" class="cls-5" d="M479.221,422.3h0Z" transform="translate(6.716 10.532)"/>
    <path id="Path_365" data-name="Path 365" class="cls-14" d="M487.252,407.1a3.865,3.865,0,0,1-3.139-1.207s-5.433,1.57-7.244,5.071-14.368,10.5-14.368,10.5,2.173,1.207,1.932,1.811l8.21-4.709s2.9-2.053,3.743-2.536,5.313-3.381,6.279,4.588,0,7,0,7,1.328.483,3.381-3.381c1.932-3.743,8.09-4.709,8.09-4.709l.362-3.984s1.207-2.656.242-3.743a3.777,3.777,0,0,1-.6-1.207c-.121-.966,0-2.656,2.173-4.105a16.4,16.4,0,0,0,4.588-3.984s.121-1.328-1.932-1.932S488.7,396.6,488.7,396.6l-.242,1.207,6.52,4.588s-3.26,2.656-5.8,2.536C489.063,405.173,489.546,407.1,487.252,407.1Z" transform="translate(3.273 5.202)"/>
    <path id="Path_366" data-name="Path 366" class="cls-5" d="M484.705,402.99c-.121-.6-.242-1.087-.362-1.69l-3.622.966a3.886,3.886,0,0,1-.121,2.053,3.8,3.8,0,0,0,4.105-1.328Z" transform="translate(7.027 6.177)"/>
    <circle id="Ellipse_143" data-name="Ellipse 143" class="cls-11" cx="3.864" cy="3.864" r="3.864" transform="translate(484.85 402.768)"/>
    <path id="Path_367" data-name="Path 367" class="cls-5" d="M484.984,393.309a30.255,30.255,0,0,1,3.139.845,1.031,1.031,0,0,0,.845,0c.362-.121.724-.6,1.207-.6.241,0,.483.241.724.362a6.9,6.9,0,0,1,.966.845,21.967,21.967,0,0,1,1.811,2.777,2.13,2.13,0,0,0,2.656,1.087,5.871,5.871,0,0,1-5.071,4.588,21.376,21.376,0,0,0-2.777.121,1.532,1.532,0,0,1-.724.121,1.6,1.6,0,0,1-1.207-.966,30.6,30.6,0,0,0-2.173-3.26,1.878,1.878,0,0,0-.966-.724,1.947,1.947,0,0,0-1.087.362,3.676,3.676,0,0,0-1.57,1.087,1.878,1.878,0,0,0-.483,1.932,3.838,3.838,0,0,1,.362,1.087c0,.6-.483,1.087-.6,1.69v.724a3.058,3.058,0,0,1-1.207,2.053c-.241.242-.483.362-.483.724v.6a1.16,1.16,0,0,1-1.087.845,2.776,2.776,0,0,1-1.69-.242,2.15,2.15,0,0,0,.966-2.053c-.241-1.087-1.328-1.932-1.207-3.018a1.371,1.371,0,0,1,.362-.966,9.043,9.043,0,0,0,.483-1.932,2.942,2.942,0,0,0,0-1.449c-.121-.483-.483-.724-.724-1.087a4.575,4.575,0,0,1-.724-1.57.726.726,0,0,1-.121-.483c0-.241.121-.362.362-.6a4.04,4.04,0,0,1,2.053-1.449,2.046,2.046,0,0,1,1.207,0,11.71,11.71,0,0,0,2.053-.121c.6-.121,1.449,0,1.932-.362a8.459,8.459,0,0,1,1.207-.966A6.825,6.825,0,0,1,484.984,393.309Z" transform="translate(5.783 4.508)"/>
    <path id="Path_368" data-name="Path 368" class="cls-5" d="M485,426.4s2.294,4.467,1.57,5.8" transform="translate(7.94 11.382)"/>
    <path id="Path_369" data-name="Path 369" class="cls-5" d="M488.967,437.048l-3.26-4.105v.121s-.241-1.328.483-.845a36.148,36.148,0,0,1,3.622,2.9A15.474,15.474,0,0,1,488.967,437.048Z" transform="translate(8.078 12.567)"/>
    <g id="Group_216" data-name="Group 216" class="cls-15" transform="translate(465.894 402.043)">
      <path id="Path_370" data-name="Path 370" d="M484.7,403.721a1.722,1.722,0,0,1-.6,1.69,1.685,1.685,0,0,0,1.449-1.811C485.187,403.6,484.945,403.721,484.7,403.721Z" transform="translate(-458.141 -395.39)"/>
      <path id="Path_371" data-name="Path 371" d="M463.324,419.613s12.436-6.882,14.368-10.5c1.328-2.536,4.467-4.105,6.158-4.709-1.207.362-5.313,1.932-6.882,4.95-1.811,3.5-14.368,10.5-14.368,10.5Z" transform="translate(-462.6 -395.224)"/>
      <path id="Path_372" data-name="Path 372" d="M487.139,404.527a12.264,12.264,0,0,0,4.105-2.294l-6.52-4.588.121-.6-.6-.241L484,398.007l6.52,4.588A18.8,18.8,0,0,1,487.139,404.527Z" transform="translate(-458.162 -396.8)"/>
      <path id="Path_373" data-name="Path 373" d="M486.6,416.324a19.3,19.3,0,0,1,2.536-.6V415.6A10.02,10.02,0,0,0,486.6,416.324Z" transform="translate(-457.622 -392.901)"/>
      <path id="Path_374" data-name="Path 374" d="M481.054,424.245h-.241c0-.121.121,0,.241,0,.121-.121.483-1.087-.241-7-.724-6.278-3.743-5.8-5.312-5.071,1.69-.483,3.864-.121,4.588,5.313.724,5.916.362,6.882.121,7A2.238,2.238,0,0,0,481.054,424.245Z" transform="translate(-459.925 -393.697)"/>
      <path id="Path_375" data-name="Path 375" d="M479.421,422.3h0Z" transform="translate(-459.137 -391.511)"/>
    </g>
    <path id="Path_376" data-name="Path 376" class="cls-12" d="M484.984,393.209a30.232,30.232,0,0,1,3.139.845,1.031,1.031,0,0,0,.845,0c.362-.121.724-.6,1.207-.6.241,0,.483.242.724.362a6.906,6.906,0,0,1,.966.845,21.961,21.961,0,0,1,1.811,2.777c.724.845,1.69,1.57,2.656,1.087a5.871,5.871,0,0,1-5.071,4.588,21.376,21.376,0,0,0-2.777.121,1.532,1.532,0,0,1-.724.121,1.6,1.6,0,0,1-1.207-.966,30.588,30.588,0,0,0-2.173-3.26,1.878,1.878,0,0,0-.966-.724,1.948,1.948,0,0,0-1.087.362,3.675,3.675,0,0,0-1.57,1.087,2.17,2.17,0,0,0-.483,1.932,3.837,3.837,0,0,1,.362,1.087c0,.6-.483,1.087-.6,1.69v.724a3.059,3.059,0,0,1-1.207,2.053c-.241.242-.483.362-.483.724v.6a1.16,1.16,0,0,1-1.087.845,2.776,2.776,0,0,1-1.69-.242,2.15,2.15,0,0,0,.966-2.053c-.241-1.087-1.328-1.932-1.207-3.019a1.371,1.371,0,0,1,.362-.966,9.043,9.043,0,0,0,.483-1.932,2.942,2.942,0,0,0,0-1.449c-.121-.483-.483-.724-.724-1.087a4.576,4.576,0,0,1-.724-1.57.726.726,0,0,1-.121-.483c0-.242.121-.362.362-.6a4.04,4.04,0,0,1,2.053-1.449,2.046,2.046,0,0,1,1.207,0,11.71,11.71,0,0,0,2.053-.121c.6-.121,1.449,0,1.932-.362a8.459,8.459,0,0,1,1.207-.966A6.822,6.822,0,0,1,484.984,393.209Z" transform="translate(5.783 4.487)"/>
    <circle id="Ellipse_144" data-name="Ellipse 144" class="cls-16" cx="7.848" cy="7.848" r="7.848" transform="translate(508.515 427.882)"/>
    <path id="Path_377" data-name="Path 377" class="cls-17" d="M516.367,425.584A10.384,10.384,0,1,1,505.984,415.2a10.383,10.383,0,0,1,10.384,10.384Zm-11.591,5.554,7.727-7.727a.735.735,0,0,0,0-.966h0l-.966-.966a.734.734,0,0,0-.966,0h0l-6.279,6.279-2.9-2.9a.734.734,0,0,0-.966,0l-.966.966a.735.735,0,0,0,0,.966l4.347,4.347a.734.734,0,0,0,.966,0Z" transform="translate(10.138 9.059)"/>
  </g>
</svg>
