<svg xmlns="http://www.w3.org/2000/svg" viewBox="0 0 33.451 26">
  <defs>
    <style>
      .cls-1 {
        fill: #fff;
      }
    </style>
  </defs>
  <path id="home-solid" class="cls-1" d="M28.4,48.633v8.323a1.391,1.391,0,0,1-1.394,1.394H20.268a.7.7,0,0,1-.7-.7V51.148a.7.7,0,0,0-.7-.7H14.692a.7.7,0,0,0-.7.7v6.505a.7.7,0,0,1-.7.7H6.561a1.391,1.391,0,0,1-1.394-1.394V48.633a.7.7,0,0,1,.256-.54L16.342,39.1a.708.708,0,0,1,.889,0L28.15,48.093A.711.711,0,0,1,28.4,48.633ZM33.255,45.1l-4.856-4V33.05a.7.7,0,0,0-.7-.7H24.45a.7.7,0,0,0-.7.7v4.217l-5.2-4.281a2.785,2.785,0,0,0-3.543,0L.311,45.1a.7.7,0,0,0-.093.982l1.481,1.8a.7.7,0,0,0,.982.093l13.661-11.25a.708.708,0,0,1,.889,0l13.661,11.25a.7.7,0,0,0,.982-.093l1.481-1.8A.7.7,0,0,0,33.255,45.1Z" transform="translate(-0.059 -32.35)"/>
</svg>
