<svg xmlns="http://www.w3.org/2000/svg" viewBox="0 0 12.161 17.653">
  <defs>
    <style>
      .cls-1 {
        fill: #6f6f6f;
      }
    </style>
  </defs>
  <g id="loaction" transform="translate(-66.905)">
    <path id="Facebook_Places" class="cls-1" d="M78.779,4.394a5.5,5.5,0,0,0-.285-.706A6.048,6.048,0,0,0,66.905,5.476v.753c0,.031.011.314.026.455.22,1.757,1.607,3.625,2.642,5.382,1.114,1.883,2.27,3.735,3.416,5.586.706-1.208,1.41-2.432,2.1-3.609.188-.345.406-.691.595-1.02.126-.219.365-.439.475-.643,1.114-2.04,2.907-4.1,2.907-6.12V5.429A6.264,6.264,0,0,0,78.779,4.394ZM72.952,8.175A2.158,2.158,0,0,1,70.886,6.7a2.046,2.046,0,0,1-.058-.549V5.664A2.044,2.044,0,0,1,73.02,3.656a2.222,2.222,0,0,1,2.226,2.26A2.279,2.279,0,0,1,72.952,8.175Z" transform="translate(0 0)"/>
  </g>
</svg>
