<?xml version="1.0" encoding="utf-8"?>
<!-- Generator: Adobe Illustrator 22.0.0, SVG Export Plug-In . SVG Version: 6.00 Build 0)  -->
<svg version="1.1" id="圖層_1" xmlns="http://www.w3.org/2000/svg" xmlns:xlink="http://www.w3.org/1999/xlink" x="0px" y="0px"
	 viewBox="0 0 12.2 17.7" style="enable-background:new 0 0 12.2 17.7;" xml:space="preserve">
<style type="text/css">
	.st0{fill:#212529;}
</style>
<g id="loaction" transform="translate(-66.905)">
	<path id="Facebook_Places" class="st0" d="M78.8,4.4c-0.1-0.2-0.2-0.5-0.3-0.7c-1.3-3.1-4.9-4.5-7.9-3.2c-2,0.9-3.4,2.8-3.7,5v0.8
		c0,0,0,0.3,0,0.5c0.2,1.8,1.6,3.6,2.6,5.4c1.1,1.9,2.3,3.7,3.4,5.6c0.7-1.2,1.4-2.4,2.1-3.6c0.2-0.3,0.4-0.7,0.6-1
		c0.1-0.2,0.4-0.4,0.5-0.6c1.1-2,2.9-4.1,2.9-6.1V5.4C79,5.1,78.9,4.7,78.8,4.4z M73,8.2c-0.9,0-1.8-0.6-2.1-1.5
		c0-0.2-0.1-0.4-0.1-0.5V5.7c0-1.1,0.9-2,2.1-2c0,0,0.1,0,0.1,0c1.2,0,2.2,1,2.2,2.2c0,0,0,0,0,0C75.2,7.2,74.2,8.2,73,8.2z"/>
</g>
</svg>
