<svg xmlns="http://www.w3.org/2000/svg" viewBox="0 0 29 29">
  <defs>
    <style>
      .cls-1 {
        fill: #6aa0ff;
      }

      .cls-2 {
        fill: #fff;
      }
    </style>
  </defs>
  <g id="Group_200" data-name="Group 200" transform="translate(-133 -499)">
    <path id="Path_109" data-name="Path 109" class="cls-1" d="M14.5,0A14.5,14.5,0,1,1,0,14.5,14.5,14.5,0,0,1,14.5,0Z" transform="translate(133 499)"/>
    <g id="mail" transform="translate(137.563 501.472)">
      <g id="Group_167" data-name="Group 167" transform="translate(3.464 11.298)">
        <path id="Path_105" data-name="Path 105" class="cls-2" d="M22.866,19.215a.318.318,0,0,1-.219-.087l-3.69-3.462A.321.321,0,1,1,19.4,15.2l3.69,3.462a.321.321,0,0,1-.22.554Z" transform="translate(-10.228 -15.111)"/>
        <path id="Path_106" data-name="Path 106" class="cls-2" d="M5.722,19.215a.321.321,0,0,1-.22-.554L9.194,15.2a.321.321,0,1,1,.439.467L5.942,19.128A.318.318,0,0,1,5.722,19.215Z" transform="translate(-5.402 -15.112)"/>
      </g>
      <path id="Path_107" data-name="Path 107" class="cls-2" d="M18.284,18.62H1.6a1.6,1.6,0,0,1-1.6-1.6V6.085a1.6,1.6,0,0,1,1.6-1.6H18.284a1.6,1.6,0,0,1,1.6,1.6V17.017A1.6,1.6,0,0,1,18.284,18.62ZM1.6,5.123a.963.963,0,0,0-.962.962V17.017a.963.963,0,0,0,.962.962H18.284a.963.963,0,0,0,.962-.962V6.085a.963.963,0,0,0-.962-.962Z"/>
      <path id="Path_108" data-name="Path 108" class="cls-2" d="M10.18,13.448A1.793,1.793,0,0,1,9,13.024L.768,5.841a.321.321,0,1,1,.421-.484l8.234,7.182a1.2,1.2,0,0,0,1.511,0l8.224-7.171a.321.321,0,0,1,.422.484l-8.224,7.171A1.792,1.792,0,0,1,10.18,13.448Z" transform="translate(-0.236 -0.286)"/>
    </g>
  </g>
</svg>
