<svg xmlns="http://www.w3.org/2000/svg" viewBox="0 0 29 29">
  <defs>
    <style>
      .cls-1 {
        fill: #ff5722;
      }

      .cls-2 {
        fill: #fff;
      }
    </style>
  </defs>
  <g id="Group_199" data-name="Group 199" transform="translate(-133 -453)">
    <path id="Path_104" data-name="Path 104" class="cls-1" d="M14.5,0A14.5,14.5,0,1,1,0,14.5,14.5,14.5,0,0,1,14.5,0Z" transform="translate(133 453)"/>
    <g id="alarm" transform="translate(135.233 457.001)">
      <path id="Path_101" data-name="Path 101" class="cls-2" d="M20.241,15.942a7.868,7.868,0,0,1-2.472-5.734V7.042a5.122,5.122,0,0,0-3-4.652,7.076,7.076,0,0,0-1.23-.428v-.2a1.76,1.76,0,1,0-3.52,0v.233a6.97,6.97,0,0,0-1.107.4A5.325,5.325,0,0,0,5.793,7.04v3.168a7.81,7.81,0,0,1-2.36,5.734.352.352,0,0,0,.188.6l3.341.577c.622.107,1.2.2,1.741.268a3.48,3.48,0,0,0,6.277,0c.543-.072,1.113-.16,1.732-.267l3.34-.577a.352.352,0,0,0,.189-.6ZM10.721,1.76a1.056,1.056,0,1,1,2.112,0v.064a7,7,0,0,0-2.112.017Zm1.12,16.9a2.821,2.821,0,0,1-2.259-1.167,21.8,21.8,0,0,0,2.255.122,21.681,21.681,0,0,0,2.263-.123A2.822,2.822,0,0,1,11.841,18.655Zm4.751-2.234c-.675.117-1.295.211-1.88.286h0c-.258.033-.508.061-.754.086h-.008c-.224.023-.444.04-.66.056l-.123.008c-.188.012-.374.022-.559.029l-.114,0c-.438.015-.87.015-1.307,0l-.117,0q-.273-.011-.552-.029l-.131-.009c-.211-.015-.425-.033-.643-.055l-.023,0c-.244-.024-.492-.053-.748-.085h0c-.587-.074-1.208-.17-1.887-.287l-2.7-.466A8.472,8.472,0,0,0,6.5,10.208V7.042A4.608,4.608,0,0,1,9.2,3.032a6.293,6.293,0,0,1,1.231-.416h.011a6.4,6.4,0,0,1,2.668-.024s.009,0,.014,0a6.366,6.366,0,0,1,1.346.44,4.468,4.468,0,0,1,2.591,4.01v3.168a8.565,8.565,0,0,0,2.222,5.748Z"/>
      <path id="Path_102" data-name="Path 102" class="cls-2" d="M21.812,10.477a5.378,5.378,0,0,0-4.389,0,3.557,3.557,0,0,0-2.094,3.046.352.352,0,0,0,.35.354h0a.352.352,0,0,0,.352-.35,2.839,2.839,0,0,1,1.684-2.411,4.66,4.66,0,0,1,3.8,0,.352.352,0,1,0,.293-.64Z" transform="translate(-7.776 -6.486)"/>
    </g>
  </g>
</svg>
