<?xml version="1.0" encoding="utf-8"?>
<!-- Generator: Adobe Illustrator 16.0.0, SVG Export Plug-In . SVG Version: 6.00 Build 0)  -->
<!DOCTYPE svg PUBLIC "-//W3C//DTD SVG 1.1//EN" "http://www.w3.org/Graphics/SVG/1.1/DTD/svg11.dtd">
<svg version="1.1" id="picture" xmlns="http://www.w3.org/2000/svg" xmlns:xlink="http://www.w3.org/1999/xlink" x="0px" y="0px"
	 width="32px" height="32px" viewBox="0 0 32 32" enable-background="new 0 0 32 32" xml:space="preserve">
<path fill="#FFFFFF" d="M29.363,3.874H2.638c-0.312,0-0.566,0.252-0.566,0.562v23.127c0,0.311,0.254,0.564,0.566,0.564h26.726
	c0.313,0,0.564-0.254,0.564-0.564V4.436C29.928,4.126,29.677,3.874,29.363,3.874z M12.558,8.975c0,1.658-1.344,2.996-2.996,2.996
	c-1.657,0-2.998-1.338-2.998-2.996s1.341-3,2.998-3C11.214,5.975,12.558,7.316,12.558,8.975z M28.056,21.146H5.984H4.216v-0.229
	l4.713-5.385l2.65,1.787l3.09-5.294l3.592,2.544l3.242-6.723l6.592,13.049v0.251H28.056z"/>
</svg>
