<svg xmlns="http://www.w3.org/2000/svg" viewBox="0 0 29 29">
  <defs>
    <style>
      .cls-1 {
        fill: #49cbdd;
      }

      .cls-2 {
        fill: #fff;
      }
    </style>
  </defs>
  <g id="Group_197" data-name="Group 197" transform="translate(-133 -334)">
    <circle id="Ellipse_26" data-name="Ellipse 26" class="cls-1" cx="14.5" cy="14.5" r="14.5" transform="translate(133 334)"/>
    <g id="shop" transform="translate(138.267 308.557)">
      <g id="Group_178" data-name="Group 178" transform="translate(0 31.05)">
        <path id="Path_141" data-name="Path 141" class="cls-2" d="M252.063,263.75h-2.581a1.282,1.282,0,0,0-1.281,1.281v1.98a1.282,1.282,0,0,0,1.281,1.281h2.581a1.282,1.282,0,0,0,1.281-1.281v-1.98A1.282,1.282,0,0,0,252.063,263.75Zm.349,3.261a.35.35,0,0,1-.349.349h-2.581a.35.35,0,0,1-.349-.349v-1.98a.35.35,0,0,1,.349-.349h2.581a.35.35,0,0,1,.349.349Z" transform="translate(-238.565 -254.717)"/>
        <path id="Path_142" data-name="Path 142" class="cls-2" d="M19,36.485a.432.432,0,0,0-.062-.229L16.11,31.287a.468.468,0,0,0-.4-.237H3.288a.46.46,0,0,0-.4.237L.062,36.256A.471.471,0,0,0,0,36.485a2.725,2.725,0,0,0,1.63,2.492v8.195a.467.467,0,0,0,.466.466H16.9a.467.467,0,0,0,.466-.466V39.035a.205.205,0,0,0,0-.05A2.733,2.733,0,0,0,19,36.485ZM3.56,31.986H15.434l2.209,3.886H1.355ZM13.521,36.8A1.79,1.79,0,0,1,10,36.8Zm-4.515,0a1.793,1.793,0,0,1-3.529,0Zm-8.043,0H4.491a1.793,1.793,0,0,1-3.529,0Zm6.863,9.907H5.147V41.679a.664.664,0,0,1,.664-.664H7.166a.664.664,0,0,1,.664.664v5.027Zm8.606,0H8.758V41.679a1.6,1.6,0,0,0-1.6-1.6H5.807a1.6,1.6,0,0,0-1.6,1.6V46.71H2.562v-7.5c.054,0,.109,0,.163,0a2.722,2.722,0,0,0,2.259-1.2,2.722,2.722,0,0,0,4.519,0,2.715,2.715,0,0,0,4.511,0,2.722,2.722,0,0,0,2.259,1.2c.054,0,.1,0,.159,0v7.5Zm-.159-8.428A1.789,1.789,0,0,1,14.511,36.8h3.529A1.8,1.8,0,0,1,16.273,38.278Z" transform="translate(0 -31.05)"/>
      </g>
    </g>
  </g>
</svg>
