<svg xmlns="http://www.w3.org/2000/svg" viewBox="0 0 18.307 17.442">
  <defs>
    <style>
      .cls-1 {
        fill: #fff;
      }
    </style>
  </defs>
  <path id="star" class="cls-1" d="M3.7,18.759a.327.327,0,0,1-.323-.383l1.013-5.9L.1,8.292a.328.328,0,0,1,.182-.559l5.928-.861L8.86,1.5a.327.327,0,0,1,.294-.183h0a.326.326,0,0,1,.294.183L12.1,6.871l5.928.861a.328.328,0,0,1,.182.559l-4.29,4.181,1.013,5.9a.328.328,0,0,1-.475.345l-5.3-2.787-5.3,2.787A.33.33,0,0,1,3.7,18.759ZM1.032,8.286l3.937,3.838a.328.328,0,0,1,.094.29l-.93,5.419L9,15.274a.326.326,0,0,1,.305,0l4.867,2.558-.929-5.419a.328.328,0,0,1,.094-.29l3.937-3.838-5.441-.791a.328.328,0,0,1-.247-.179L9.153,2.386,6.72,7.316a.328.328,0,0,1-.247.179Z" transform="translate(0 -1.317)"/>
</svg>
