<svg id="success" xmlns="http://www.w3.org/2000/svg" viewBox="0 0 124.985 124.985">
  <defs>
    <style>
      .cls-1 {
        fill: #fff;
      }
    </style>
  </defs>
  <path id="Path_36" data-name="Path 36" class="cls-1" d="M62.493,0a62.493,62.493,0,1,0,62.493,62.493A62.563,62.563,0,0,0,62.493,0Zm0,120.178a57.686,57.686,0,1,1,57.686-57.686A57.753,57.753,0,0,1,62.493,120.178Z"/>
  <path id="Path_37" data-name="Path 37" class="cls-1" d="M75.1,15.808,38.158,57.366,15.9,39.563a2.4,2.4,0,0,0-3,3.754L36.937,62.546a2.406,2.406,0,0,0,3.3-.281L78.694,19a2.4,2.4,0,0,0-3.6-3.192Z" transform="translate(16.843 21.053)"/>
</svg>
