<svg xmlns="http://www.w3.org/2000/svg" viewBox="0 0 29 29">
  <defs>
    <style>
      .cls-1, .cls-4 {
        fill: none;
      }

      .cls-1 {
        stroke: #fff;
      }

      .cls-2 {
        fill: #fff;
      }

      .cls-3 {
        stroke: none;
      }
    </style>
  </defs>
  <g id="Group_201" data-name="Group 201" transform="translate(-26 -287)">
    <g id="Ellipse_78" data-name="Ellipse 78" class="cls-1" transform="translate(26 287)">
      <circle class="cls-3" cx="14.5" cy="14.5" r="14.5"/>
      <circle class="cls-4" cx="14.5" cy="14.5" r="14"/>
    </g>
    <g id="user" transform="translate(32.08 292.41)">
      <g id="Group_166" data-name="Group 166" transform="translate(0)">
        <path id="Path_103" data-name="Path 103" class="cls-2" d="M14.092,10.673a8.223,8.223,0,0,0-3.137-1.968,4.772,4.772,0,1,0-5.4,0A8.268,8.268,0,0,0,0,16.51H1.29a6.965,6.965,0,1,1,13.93,0h1.29A8.2,8.2,0,0,0,14.092,10.673ZM8.255,8.255a3.483,3.483,0,1,1,3.483-3.483A3.486,3.486,0,0,1,8.255,8.255Z" transform="translate(0)"/>
      </g>
    </g>
  </g>
</svg>
